<svg xmlns="http://www.w3.org/2000/svg" width="113" height="51" viewBox="0 0 113 51"><g><g clip-path="url(#clip-aa50b9a7-525e-4927-970e-d1737f3eb6e9)"><path fill="#ee2722" d="M46.375 10.888v18.11H26.23l3.693-6.34h10.112v-11.77zm66.106 9.054c0 11.001-8.922 19.919-19.926 19.919v10.864h-17.2V42.25c-4.654 5.202-11.403 8.475-18.928 8.475H40.035V39.861H27.224l-6.338 10.864H.766L30.34.02h26.087c7.525 0 14.274 3.282 18.928 8.485V.02h17.2c11.004 0 19.926 8.924 19.926 19.922zM56.427 44.398c7.588 0 14.128-4.444 17.183-10.876h8.082v10.876h4.523V33.522h6.34c7.506 0 13.587-6.08 13.587-13.58s-6.08-13.584-13.587-13.584H81.692v16.3h-6.448c-1.314-9.211-9.239-16.3-18.817-16.3H34.133l-22.176 38.04h5.29l6.338-10.876h22.79v10.876zm36.128-33.51a9.055 9.055 0 0 1 0 18.109h-6.34v-6.338h6.34a2.709 2.709 0 0 0 2.715-2.717 2.72 2.72 0 0 0-2.715-2.721h-6.34v-6.333h6.34zM70.919 25.373c0 8.002-6.491 14.488-14.492 14.488H50.9v-6.339h5.526a8.149 8.149 0 0 0 8.155-8.15c0-4.496-3.65-8.151-8.155-8.151H50.9v-6.333h5.526c8 0 14.492 6.486 14.492 14.485"/></g></g></svg>