<svg xmlns="http://www.w3.org/2000/svg" width="154" height="37" viewBox="0 0 154 37"><g><g><path fill="#cc2229" d="M.644 32.256h153.162v3.842H.644zM.644 0h153.162v3.841H.644zm139.63 20.779h3.472c0 2.169 1.689 3.015 3.607 3.015 1.257 0 3.175-.365 3.175-2.033 0-1.76-2.443-2.056-4.841-2.695-2.42-.64-4.864-1.575-4.864-4.636 0-3.335 3.151-4.933 6.098-4.933 3.402 0 6.532 1.484 6.532 5.253h-3.473c-.114-1.965-1.507-2.467-3.22-2.467-1.142 0-2.466.48-2.466 1.85 0 1.256.777 1.415 4.864 2.466 1.187.298 4.842 1.05 4.842 4.75 0 2.993-2.352 5.23-6.783 5.23-3.609 0-6.989-1.78-6.942-5.8zm-10.509-.89h4.226l-2.056-5.984h-.045zm.343-10.004h3.677l6.097 16.307h-3.721l-1.234-3.632h-6.097l-1.28 3.632h-3.63zm-21.383 16.307V9.885h3.562l6.806 10.939h.046V9.885h3.357v16.307h-3.585l-6.784-10.917h-.045v10.917zm-9.412-12.287l-2.125 5.983h4.226l-2.056-5.983zm-7.971 12.287l6.19-16.307h3.676l6.098 16.307h-3.723l-1.233-3.632h-6.098l-1.28 3.632zm-.852-10.825h-3.472c-.228-1.622-1.78-2.856-3.563-2.856-3.22 0-4.43 2.741-4.43 5.595 0 2.718 1.21 5.458 4.43 5.458 2.193 0 3.427-1.506 3.7-3.653h3.472c-.365 4.064-3.175 6.668-7.172 6.668-5.047 0-8.016-3.768-8.016-8.473 0-4.84 2.97-8.609 8.016-8.609 3.586 0 6.6 2.101 7.035 5.87zM69.408 9.885h3.585v16.307h-3.585zm-12.91 7.376h3.929c1.598 0 2.466-.685 2.466-2.329 0-1.576-.868-2.26-2.466-2.26h-3.929zm-3.585-7.376h8.792c2.924 0 4.774 2.031 4.774 4.499 0 1.92-.776 3.357-2.58 4.088v.045c1.758.458 2.26 2.17 2.374 3.814.069 1.028.046 2.947.685 3.86h-3.585c-.434-1.027-.388-2.603-.571-3.905-.251-1.713-.914-2.466-2.718-2.466h-3.586v6.372h-3.585zm-14.807 0h12.196V12.9h-8.61v3.495h7.903v2.787h-7.903v3.995h8.792v3.016H38.106zm-20.723 0h5.047L26.244 21.1h.046l3.608-11.214h5.047v16.307h-3.357V14.635h-.046l-3.996 11.557h-2.764L20.785 14.75h-.045v11.442h-3.357zM5.847 19.888h4.224l-2.055-5.983H7.97zm.342-10.003h3.677l6.098 16.307h-3.722l-1.235-3.632H4.91l-1.279 3.632H0z"/></g></g></svg>