<svg xmlns="http://www.w3.org/2000/svg" width="141" height="39" viewBox="0 0 141 39"><g><g><path d="M.746 36.49H140.17v2.428H.746zM66.571.93h5.08l2.888 9.009h-.38L66.57.93zm11.83 18.96c0-3.459-1.49-5.895-4.79-5.895-2.886 0-4.44 2.86-4.79 5.896zm3.998.672zm0 0H68.695a29.856 29.856 0 0 0-.095 2.295c0 6.567 3.045 9.003 6.122 9.003 3.649 0 6.344-2.79 7.422-6.92h.666c-1.015 4.873-4.185 7.802-8.5 7.802-5.392 0-9.39-4.06-9.39-9.709s3.998-9.71 9.39-9.71c3.456 0 7.644 2.331 8.087 7.238zm41.037 0zm0 0h-13.702a29.86 29.86 0 0 0-.095 2.295c0 6.567 3.045 9.003 6.122 9.003 3.647 0 6.344-2.79 7.423-6.92h.667c-1.015 4.873-4.188 7.802-8.502 7.802-5.392 0-9.388-4.06-9.388-9.709s3.996-9.71 9.388-9.71c3.458 0 7.645 2.331 8.087 7.238zm-3.995-.671c0-3.46-1.493-5.896-4.79-5.896-2.886 0-4.44 2.86-4.79 5.896zm-29.688-6.178l.062 5.084c.672-3.002 2.109-5.473 5.978-5.473 3.224 0 6.242 2.012 6.242 7.627v6.814c-.06 3.354.323 3.848 1.172 4.2.205.071.38.177.38.248 0 .107-.147.107-.439.107-.263 0-1.025-.107-2.638-.107-1.582 0-2.636.106-3.077-.211 1.056-.142 1.585-1.096 1.585-4.237v-6.85c0-3.249-1.203-6.709-4.31-6.709-3.488 0-4.63 4.308-4.63 9.25v4.31c0 2.223.087 3.883 1.407 4.164.203.036.322.106.059.389-.206 0-1.407-.106-2.99-.106-1.583 0-2.93.106-3.137.106-.175 0-.263-.035.06-.389 1.466-.281 1.582-1.941 1.582-4.165V19.01c0-2.12-.204-3.32-1.026-3.743-.322-.177-.528-.283-.528-.353 0-.106.206-.106.558-.176 1.406-.318 2.607-.566 3.69-1.024zm-36.66 4.165l4.572 10.592 3.75-8.79c.526-1.378.995-2.685.995-3.708 0-1.201-.644-1.625-1.318-2.26.763 0 1.026.14 2.228.14 1.143 0 1.407-.14 2.168-.14.204 0 .382 0 .382.105 0 .142-.09.283-.264.424-.968.812-1.995 2.684-2.991 4.838l-5.713 13.17c-.09.211-.264.493-.411.493-.088 0-.117-.177-.294-.53L51.07 20.174c-1.113-2.683-2.05-4.978-3.632-6.32 0-.14.174-.14.38-.14.468 0 1.201.14 2.608.14 1.349 0 2.404-.14 2.637-.14.146 0 .382.035.118.423-.469.141-.82.565-.82 1.342 0 .706.468 1.73.732 2.4zm-15.755-.533L33.172 7.59l-4.087 9.756zm.505 1.173h-9.267l-2.1 4.925c-.7 1.64-1.362 3.423-1.362 5.346 0 2.017 1.05 2.533 2.1 3.002.313.093.429.187.429.328 0 .187-.195.234-.467.234-.271 0-1.674-.14-3.816-.14-1.555 0-2.568.14-3.034.14-.391 0-.508-.093-.508-.234 0-.328.468-.515.741-.75 1.556-1.501 3.659-5.394 4.514-7.41l9.539-22.325c.117-.234.193-.376.35-.376.117 0 .234.188.31.376L46.72 27.429c.661 1.453 1.44 2.814 2.608 3.893.428.375.895.562.895.797 0 .141-.196.234-.546.234-.271 0-2.1-.14-4.358-.14-3.192 0-4.479.14-4.712.14-.193 0-.389-.047-.389-.14 0-.188.196-.282.506-.375.895-.376 1.09-1.267 1.09-2.44 0-.843-.817-3.142-1.75-5.347l-2.22-5.534z"/></g></g></svg>