<svg xmlns="http://www.w3.org/2000/svg" width="87" height="87" viewBox="0 0 87 87"><g><g><g><path fill="#d52b1e" d="M4.828 0C2.414 0 .457 2.583.457 5.769v75.005c0 3.186 1.957 5.77 4.371 5.77h77.8c2.415 0 4.372-2.584 4.372-5.77V5.769C87 2.583 85.043 0 82.628 0z"/></g><g><path fill="#fdc82f" d="M43.64 38.654c1.177-8.707 5.06-24.412 12.463-24.412 8.643 0 18.798 29.033 18.796 53.07h-7.97c0-25.211-6.176-47.927-10.62-47.928-4.634 0-8.696 15.452-8.696 44.89h-7.96c0-29.438-4.037-44.89-8.696-44.89-4.436 0-10.606 22.721-10.606 47.927h-7.97c.007-24.057 10.137-53.072 18.795-53.07 7.393.003 11.277 15.704 12.464 24.413"/></g><g><path fill="#fdc82f" d="M77.967 63.466c1.043 0 1.917.827 1.917 1.914a1.911 1.911 0 0 1-1.917 1.931 1.918 1.918 0 0 1-1.93-1.93c0-1.088.881-1.915 1.93-1.915zm0 3.563c.883 0 1.57-.709 1.57-1.649 0-.922-.687-1.631-1.57-1.631-.896 0-1.579.709-1.579 1.631 0 .94.683 1.65 1.579 1.65zm-.747-2.765h.865c.531 0 .781.21.781.641 0 .408-.255.577-.586.612l.637.993h-.373l-.608-.966h-.368v.966h-.348zm.348.997h.364c.306 0 .586-.015.586-.37 0-.3-.254-.345-.491-.345h-.46z"/></g></g></g></svg>