<svg xmlns="http://www.w3.org/2000/svg" width="84" height="84" viewBox="0 0 84 84"><g><g><g><path fill="#8a05be" d="M.818-.008H84v83.182H.818z"/></g><g><path fill="#fff" d="M41.018 34.129s.007 9.909.004 16.892c0 .83-.656 1.502-1.465 1.502h-3.8c-.808 0-1.465-.673-1.465-1.502V35.3c0-1.789-1.415-3.239-3.16-3.239h-3.164v18.96c0 .805-.621 1.458-1.397 1.495-.024 0-.044.007-.068.007h-3.796c-.809 0-1.465-.673-1.465-1.502V35c0-2.104 2.162-4.328 4.207-4.328h1.164v-1.43c0-2.239 1.724-3.629 4.499-3.629 4.136 0 9.906 3.24 9.905 8.516zm-18.06 17.005h3.296a.365.365 0 0 0 .36-.368c-.003-1.248-.003-7.157 0-18.704h-1.166c-1.278 0-2.85 1.622-2.85 2.94v15.764c-.002.201.158.363.359.369zm16.711-.367c0-6.966-.007-16.638-.007-16.638 0-2.977-3.252-7.127-8.55-7.127-2.734 0-3.142 1.399-3.142 2.231v1.44h3.164c2.492 0 4.515 2.072 4.515 4.627v15.464c0 .201.16.368.36.368h3.301a.36.36 0 0 0 .359-.365zm22.442-20.124c.81 0 1.467.673 1.465 1.502v16.02c0 2.104-2.162 4.328-4.206 4.328h-1.165v1.43c0 2.239-1.724 3.629-4.498 3.629-4.137 0-9.906-3.24-9.907-8.515 0 0-.008-10.037-.006-16.892.001-.83.658-1.502 1.467-1.502h3.799c.809 0 1.465.673 1.465 1.502v15.72c0 1.79 1.415 3.24 3.16 3.24h3.164v-18.96c0-.827.658-1.502 1.465-1.502h3.797zm-5.26 21.85h-3.163c-2.493 0-4.515-2.072-4.515-4.627V32.401a.365.365 0 0 0-.361-.368h-3.3a.36.36 0 0 0-.36.365c0 7.014.006 16.638.006 16.638 0 2.977 3.252 7.127 8.55 7.127 2.733 0 3.141-1.397 3.141-2.23zm5.37-4.327V32.398a.366.366 0 0 0-.36-.368h-3.296a.361.361 0 0 0-.359.365c.002 1.605.002 10.644 0 18.708h1.164c1.279 0 2.851-1.62 2.851-2.937z"/></g></g></g></svg>