<svg xmlns="http://www.w3.org/2000/svg" width="154" height="36" viewBox="0 0 154 36"><g><g><g><path fill="#28458e" d="M26.026 20.499c-1.609 2.785-5.605 6.45-11.516 6.45-2.614 0-4.327-.718-4.832-.903l.035-.11c1.664.342 3.37.422 5.058.237-4.72-1.732-8.276-7.23-8.276-14.423 0-4.485 1.86-7.054 2.157-7.502l.105.041c-.246.526-1.515 3.096-1.515 7.25 0 6.364 3.493 12.576 8.4 14.516a17.676 17.676 0 0 0 3.64-1.004c-5.119-4.886-9.317-14.9-9.346-20.8l.133-.04c1.312 6.077 5.38 15.654 9.745 20.62a17.937 17.937 0 0 0 3.524-2.013c-2.146-7.945-7.662-15.3-12.288-19.087l.099-.069c4.599 2.254 11.104 9.977 12.643 18.81a13.882 13.882 0 0 0 2.119-2.051zm.402-1.012c.352-7.347-5.998-15.62-14.655-16.643l.015-.1c8.534 0 15.077 7.883 15.077 14.102-.008 1.294-.11 2.096-.294 2.679zm107.848 7.505c0-7.936 6.129-8.193 9.436-8.193 3.306 0 9.435.258 9.435 8.193s-6.129 8.193-9.435 8.193c-3.307 0-9.436-.259-9.436-8.193zm9.436 4.332c2.223 0 3.635-1.222 3.635-4.332s-1.412-4.333-3.635-4.333c-2.224 0-3.635 1.222-3.635 4.333 0 3.11 1.411 4.332 3.635 4.332zm-10.77-2.638c-.347 2.016-.967 3.646-2.32 4.76-1.334 1.116-3.422 1.738-6.747 1.738-3.306 0-9.435-.258-9.435-8.192 0-7.936 6.129-8.193 9.435-8.193 3.286 0 8.352.471 9.068 6.541h-6.148c-.155-1.094-.814-2.681-2.92-2.681-2.225 0-3.636 1.222-3.636 4.333 0 3.11 1.373 4.331 3.365 4.331 1.72 0 2.746-.793 3.19-2.637h6.149zm-25.657-9.35h5.452v15.312h-5.452zM91.8 28.15c-2.668-.451-3.77-2.167-3.77-4.311 0-3.969 3.5-5.04 7.985-5.04 6.147 0 8.68 1.78 8.874 5.018h-6.342c0-.622-.328-1.009-.83-1.223-.484-.235-1.102-.32-1.702-.32-1.624 0-2.184.45-2.184 1.093 0 .428.173.708.714.794l6.516 1.071c2.746.45 4.447 1.866 4.447 4.46 0 3.734-2.745 5.492-8.875 5.492-4.195 0-8.777-.643-8.796-5.147h6.573c.019.514.194.857.58 1.093.406.215 1.005.323 1.856.323 1.7 0 2.166-.516 2.166-1.245 0-.45-.252-.9-.985-1.028zM69.97 19.335h11.252c3.867 0 5.299 1.93 5.299 5.34 0 2.939-1.393 5.211-5.26 5.211h-5.839v4.762h-5.452zm5.452 6.82h3.519c1.373 0 1.895-.472 1.895-1.587 0-1.158-.522-1.63-1.895-1.63h-3.519zm-22.408-6.82h14.674v3.731h-9.222v2.06h8.565v3.732h-8.565v2.058h9.222v3.732H53.015zm-18.349 0H45.92c3.866 0 5.298 1.93 5.298 5.34 0 2.939-1.392 5.211-5.259 5.211h-5.84v4.762h-5.452zm5.452 6.82h3.52c1.372 0 1.895-.472 1.895-1.587 0-1.158-.522-1.63-1.896-1.63h-3.519z"/></g><g><path fill="#0096d6" d="M16.212 2.192c0 2.387-4.584 5.306-8.416 5.306-1.693 0-2.608-.667-2.608-1.766 0-2.422 4.636-5.29 8.23-5.29 2.344 0 2.794 1.192 2.794 1.75zM14.325 0C9.6 0 4.056 3.41 4.056 6.53c0 1.206 1.104 2.224 3.387 2.224 5.302 0 10.227-3.642 10.227-6.474C17.67.79 16.239 0 14.325 0z"/></g><g><path fill="#eb7b30" d="M2.173 7.973c-.133.23-.665 1.272-.665 2.34 0 1.979 2 3.817 5.68 3.817 7.078 0 15.255-5.21 15.255-10.046 0-2.17-2.055-3.351-3.481-3.595l-.027.084c.444.14 2.07.897 2.07 2.83 0 3.854-7.22 9.104-14.413 9.104-2.753 0-4.487-1.36-4.487-3.339 0-.626.13-1.039.164-1.158z"/></g><g><path fill="#00984a" d="M25.362 4.445c.194.148 1.36 1.12 1.36 2.957 0 6.265-9.816 12.425-18.494 12.425-5.176 0-7.535-2.555-7.43-4.824H.89c.202 1.178 1.883 3.287 6.412 3.287 8.689 0 18.39-6.375 18.39-11.96 0-.958-.26-1.554-.407-1.82z"/></g><g><path fill="#df002c" d="M28.642 9.443c.041.134.252.733.252 1.673 0 6.969-9.933 12.935-18.573 12.935-4.446 0-6.769-2.16-7.259-3.037l.08-.059c1.23 1.076 3.653 1.894 6.481 1.894 7.63 0 19.016-5.805 18.915-13.38z"/></g></g></g></svg>