<svg xmlns="http://www.w3.org/2000/svg" width="159" height="29" viewBox="0 0 159 29"><g><g><g><path fill="#2d3c49" d="M88.693 15.227l-2.316-5.614h-.07l-2.736 6.596zm-1.684-7.508l5.543 14.033H91.08l-1.965-5.262-6.175 1.263-1.473 4h-1.474l5.543-14.034zm71.15 0l-5.192 7.788v6.245h-1.403v-6.245L146.3 7.72h1.544l4.42 6.315 4.351-6.315zm-29.049 0h11.227v1.403h-4.912v12.63h-1.403V9.122h-4.912zm-9.122 0h1.403v14.033h-1.403zm-14.034 12.63c2.737 0 4.35-1.825 4.421-1.825l.772.913s-1.825 2.315-5.193 2.315c-4.07 0-6.946-3.368-6.946-7.297 0-3.93 3.017-6.947 6.876-6.947 3.298 0 4.912 1.754 4.912 1.754l-.702.983s-1.614-1.474-4.14-1.474c-3.227 0-5.543 2.456-5.543 5.684 0 3.227 2.316 5.894 5.543 5.894zm-39.224 0c3.368 0 5.543-2.105 5.543-5.614 0-3.298-2.245-5.613-5.543-5.613h-2.877v11.227zm6.947-5.614c0 4.35-2.737 7.017-6.806 7.017H62.45V7.72h4.42c4.07 0 6.807 2.736 6.807 7.016zM51.925 7.72h1.403v8.42c0 2.947-2.316 5.613-5.964 5.613-3.649 0-5.965-2.596-5.965-5.613v-8.42h1.404v8.35c0 2.385 1.964 4.28 4.56 4.28 2.597 0 4.562-1.965 4.562-4.28z"/></g><g><path fill="#02b3e4" d="M25.822 15.577c-.07.492-.28.983-.421 1.404-.21.42-.421.842-.702 1.263-.28.42-1.122 1.473-2.245 2.105-1.123.631-2.175.842-2.807.982.421-1.122.702-2.245.702-3.508V5.403l5.613-3.228v11.859c0 .561 0 1.052-.14 1.543zm-11.929 9.824c-.49.21-1.193.491-1.754.632-.561.14-1.052.14-1.614.14a6.92 6.92 0 0 1-1.684-.21c-.561-.141-1.052-.281-1.543-.492a8.989 8.989 0 0 1-1.404-.772c-1.193-.842-1.754-1.543-2.245-2.315a8.989 8.989 0 0 1-.772-1.404c-.21-.49-.35-1.052-.491-1.613-.28-.492-.28-1.053-.28-1.614V6.456l7.016-4.28v11.858c0 4.49 3.298 8.28 7.508 9.192-.14.21-.28.42-.491.561-.772.772-1.404 1.263-2.246 1.614zM9.333 0L0 5.403v12.35c0 5.683 4.561 10.314 10.245 10.314 1.894 0 3.648-.49 5.192-1.333l7.578-4.35c3.018-1.614 5.052-4.702 5.052-8.35V1.123L26.243.07l-8 4.28v13.473c0 .561-.07 1.122-.14 1.684-.14.561-.28 1.052-.49 1.544l-.211.42c-.28 0-2.035-.631-2.947-1.262a7.085 7.085 0 0 1-1.123-.913 7.085 7.085 0 0 1-.912-1.122c-.28-.421-1.263-2.246-1.263-4.07V1.053z"/></g></g></g></svg>