<?xml version="1.0" standalone="no"?>
<!DOCTYPE svg PUBLIC "-//W3C//DTD SVG 20010904//EN"
 "http://www.w3.org/TR/2001/REC-SVG-20010904/DTD/svg10.dtd">
<svg version="1.0" xmlns="http://www.w3.org/2000/svg"
 width="544.000000pt" height="544.000000pt" viewBox="0 0 544.000000 544.000000"
 preserveAspectRatio="xMidYMid meet">
<metadata>
Created by potrace 1.14, written by Peter Selinger 2001-2017
</metadata>
<g transform="translate(0.000000,544.000000) scale(0.100000,-0.100000)"
fill="#000000" stroke="none">
<path d="M2089 5396 c-2 -2 -38 -7 -79 -10 -83 -8 -137 -15 -160 -21 -8 -3
-33 -7 -55 -10 -22 -4 -56 -11 -75 -16 -19 -6 -48 -13 -64 -15 -98 -18 -408
-148 -541 -227 -76 -45 -203 -138 -247 -179 -10 -10 -18 -15 -18 -12 0 13
-202 -185 -280 -276 -100 -116 -382 -528 -417 -610 -20 -45 -55 -188 -68 -275
-31 -208 -34 -465 -9 -685 3 -30 8 -73 10 -95 2 -22 6 -51 8 -65 3 -13 8 -42
11 -65 17 -118 106 -499 126 -537 5 -10 7 -18 3 -18 -3 0 -1 -7 6 -15 7 -8 10
-15 7 -15 -12 0 125 -380 194 -537 39 -90 47 -108 125 -263 42 -85 82 -165 88
-177 6 -13 14 -23 19 -23 4 0 7 -5 7 -11 0 -13 80 -148 150 -253 25 -37 50
-76 55 -84 12 -20 135 -183 150 -198 5 -7 26 -32 45 -58 55 -71 277 -286 361
-349 130 -98 326 -198 410 -209 13 -2 29 -6 34 -10 11 -6 76 -16 160 -24 105
-10 308 -5 415 11 19 3 49 8 65 10 17 2 41 6 55 9 14 3 51 11 82 16 32 6 115
27 185 46 70 20 133 37 138 38 6 2 17 6 25 9 117 44 187 69 195 71 6 1 27 10
49 19 21 9 40 17 41 17 1 0 19 7 39 15 20 8 39 16 43 17 23 4 403 204 493 258
148 89 348 224 410 278 8 7 43 34 78 61 217 170 467 426 612 627 27 38 53 74
58 79 10 12 88 141 129 215 31 55 122 261 128 290 2 8 11 37 20 64 9 26 18 56
20 65 2 9 8 37 14 62 27 117 35 206 36 374 0 163 -11 302 -32 385 -3 14 -7 32
-9 40 -4 23 -17 84 -19 90 -1 3 -7 25 -14 50 -19 68 -51 163 -61 182 -6 10
-10 22 -10 28 0 33 -194 418 -228 452 -7 7 -12 17 -12 23 0 7 -9 20 -20 30
-11 10 -20 22 -20 27 0 8 -36 64 -50 78 -3 3 -30 39 -61 80 -84 112 -175 216
-285 324 -75 74 -197 184 -227 205 -12 8 -24 18 -27 21 -3 4 -36 30 -75 58
-38 28 -75 56 -82 62 -7 5 -17 10 -23 10 -5 0 -10 5 -10 10 0 6 -7 10 -15 10
-8 0 -15 5 -15 10 0 6 -6 10 -14 10 -8 0 -16 4 -18 8 -9 21 -406 232 -438 232
-6 0 -22 7 -35 16 -14 9 -25 13 -25 9 0 -4 -6 -3 -12 2 -11 9 -187 69 -228 78
-8 2 -15 4 -15 5 0 1 -7 3 -15 5 -8 2 -42 11 -75 20 -33 8 -67 17 -75 19 -8 2
-33 9 -55 14 -22 6 -51 13 -65 16 -14 3 -36 7 -50 10 -49 11 -126 25 -160 30
-19 3 -45 8 -58 10 -13 3 -51 8 -85 12 -34 4 -75 8 -92 11 -39 5 -472 13 -476
9z"/>
</g>
</svg>
