<svg xmlns="http://www.w3.org/2000/svg" width="615" height="43" viewBox="0 0 615 43"><defs><clipPath id="1wxha"><path d="M504.96 16.9h-3.9V13h3.9zm4.9 0h-3.9V13h3.9zm-9.7 4.9h-3.9v-3.9h3.9zm9.7 0h-3.9v-3.9h3.9zm-4.9 0h-3.9v-3.9h3.9zm14.5 0h-3.9v-3.9h3.9zm-4.8-9.9h-3.9V8h3.9zm0 5h-3.9V13h3.9zm0 4.9h-3.9v-3.9h3.9zm17.5-1.8l.5.3-.3.5c-1.1 2.2-3.4 2.8-5.7 2.7-3.5 8.4-10.9 12.3-19.9 12.3-4.7 0-9-1.8-11.4-5.8v-.1l-.4-.7c-.8-1.8-1.1-3.8-.9-5.7l.1-.6h25.9c.9 0 1.8-.1 2.7-.4.4-.2.9-.4 1.3-.6-.5-.7-.8-1.6-.9-2.5-.1-1.2.2-2.8 1-3.7l.4-.5.5.4c1.3 1 2.3 2.3 2.5 3.9 1.5-.4 3.3-.3 4.6.5zm-28.3 8.4c0-1.1-.9-2-2.1-2-1.2 0-2.1.9-2.1 2s1 2 2.1 2 2.1-.9 2.1-2z"/></clipPath></defs><g><g><g><g><path d="M60.166 22.36a15.74 15.74 0 0 1-3.663-.428c-1.19-.285-2.117-.595-2.735-.951-.381-.215-.643-.452-.738-.666a1.68 1.68 0 0 1-.143-.667v-1.213c0-.5.19-.737.548-.737.142 0 .285.024.428.071.143.048.357.143.594.238.81.357 1.69.642 2.617.833.952.19 1.88.285 2.83.285 1.5 0 2.665-.262 3.474-.785.809-.523 1.237-1.284 1.237-2.26 0-.666-.214-1.213-.642-1.665-.429-.452-1.237-.856-2.403-1.237l-3.45-1.07c-1.736-.547-3.02-1.356-3.805-2.427-.785-1.046-1.19-2.212-1.19-3.449 0-.999.214-1.879.643-2.64.428-.761.999-1.427 1.712-1.95.714-.548 1.523-.952 2.474-1.238C58.906.12 59.904 0 60.952 0c.523 0 1.07.024 1.593.095.547.071 1.047.167 1.546.262.476.119.928.238 1.356.38.429.143.762.286 1 .428.333.19.57.381.713.595.143.19.214.452.214.785v1.118c0 .5-.19.761-.547.761-.19 0-.5-.095-.904-.285-1.356-.619-2.878-.928-4.567-.928-1.356 0-2.426.214-3.164.666-.737.452-1.118 1.142-1.118 2.117 0 .666.238 1.237.714 1.69.476.451 1.356.903 2.616 1.308l3.378 1.07c1.713.547 2.95 1.308 3.687 2.284.738.975 1.095 2.093 1.095 3.33 0 1.023-.215 1.95-.619 2.76-.428.808-.999 1.522-1.736 2.093-.738.594-1.618 1.022-2.64 1.332-1.071.333-2.19.5-3.402.5zM29.6 21.718c-.428 0-.713-.071-.904-.238-.19-.143-.356-.476-.5-.928l-5.59-18.387c-.142-.476-.213-.785-.213-.952 0-.38.19-.595.57-.595h2.332c.452 0 .761.072.928.238.19.143.333.476.475.928l3.997 15.747 3.71-15.747c.12-.476.262-.785.452-.928.19-.142.524-.238.952-.238h1.903c.452 0 .761.072.951.238.19.143.357.476.452.928l3.759 15.938 4.115-15.938c.143-.476.31-.785.476-.928.19-.142.5-.238.928-.238h2.212c.38 0 .595.19.595.595 0 .119-.024.238-.048.38a3.384 3.384 0 0 1-.167.595l-5.732 18.388c-.143.476-.31.785-.5.928-.19.143-.5.238-.904.238h-2.046c-.451 0-.76-.072-.951-.238-.19-.167-.357-.476-.452-.952L36.712 5.21l-3.663 15.32c-.12.475-.262.785-.452.951-.19.167-.524.238-.952.238zm-19.101-2.57c.785 0 1.594-.142 2.45-.427.856-.286 1.618-.809 2.26-1.523.38-.452.666-.951.809-1.522a8.54 8.54 0 0 0 .238-2.07v-.999c-.69-.166-1.428-.309-2.189-.404a17.924 17.924 0 0 0-2.236-.143c-1.594 0-2.76.31-3.544.952-.785.642-1.166 1.546-1.166 2.735 0 1.118.286 1.95.88 2.522.571.594 1.404.88 2.498.88zm9.658-3.615c0 .88.095 1.594.261 2.117.19.524.429 1.095.762 1.713.119.19.166.38.166.547 0 .238-.143.476-.452.714l-1.498.999c-.215.143-.429.214-.619.214-.238 0-.476-.119-.714-.333a7.36 7.36 0 0 1-.856-1.118 18.414 18.414 0 0 1-.737-1.404c-1.856 2.189-4.187 3.283-6.994 3.283-1.998 0-3.592-.57-4.757-1.713-1.166-1.141-1.76-2.664-1.76-4.567 0-2.022.713-3.663 2.164-4.9C6.573 9.848 8.5 9.229 10.95 9.229c.809 0 1.641.072 2.521.19.88.12 1.784.31 2.736.524V8.207c0-1.808-.38-3.069-1.118-3.806-.761-.738-2.046-1.095-3.877-1.095-.833 0-1.69.096-2.57.31-.88.214-1.736.475-2.569.808-.38.167-.666.262-.832.31a1.459 1.459 0 0 1-.38.071c-.334 0-.5-.238-.5-.737V2.902c0-.38.047-.666.166-.833.12-.166.333-.333.666-.5C6.026 1.143 7.025.786 8.191.5 9.356.19 10.593.047 11.9.047c2.831 0 4.9.643 6.233 1.927 1.308 1.285 1.974 3.235 1.974 5.852v7.707z"/></g><g><g><path d="M64.662 33.921c-7.826 5.78-19.196 8.849-28.973 8.849-13.702 0-26.047-5.067-35.372-13.488-.738-.666-.071-1.57.809-1.046 10.086 5.852 22.527 9.396 35.396 9.396 8.682 0 18.22-1.808 26.999-5.519 1.308-.595 2.426.857 1.141 1.808z"/></g><g><path d="M67.921 30.21c-.999-1.284-6.613-.618-9.158-.31-.761.096-.88-.57-.19-1.07 4.472-3.14 11.822-2.236 12.679-1.189.856 1.07-.238 8.42-4.425 11.941-.642.548-1.26.262-.975-.451.951-2.355 3.068-7.66 2.07-8.92z"/></g></g></g><g><g><path d="M426.914 28.906v-3.559s0-.802 1.255-.802h1.378c1.11 0 1.131.802 1.131.802v3.559zm-.164-7.837c-2.86 0-3.826 2.592-3.826 3.826v10.737h4.01V33.06h3.765v2.57h3.888V24.896c0-3.126-2.839-3.826-3.826-3.826zm-14.008 6.932v-3.353h3.168s.885.33.885 1.666c0 1.337-.905 1.687-.905 1.687zm4.67 3.003s3.6-.309 3.6-4.957c0-4.649-4.361-5.08-4.361-5.08h-7.858v14.665h3.95v-3.538l3.414 3.538h5.841zm36.036.905v3.723h6.726c1.378 0 3.744-1.008 3.826-3.826v-1.44c0-2.406-1.975-3.826-3.826-3.826h-3.353v-1.727h6.644v-3.744h-6.376c-1.646 0-3.847 1.358-3.847 3.888v1.296c0 2.53 2.18 3.825 3.847 3.825 4.628.02-1.11 0 3.167 0v1.81"/></g><g><path d="M436.417 35.632V21.069h4.176v14.563z"/></g><g><path d="M446.455 31.868V21.069H442.3V35.632h9.77v-3.764z"/></g><g><path d="M384.008 35.632h16.25s-3.107-14.172 7.178-19.91c2.242-1.09 9.38-5.163 21.062 3.475.37-.308.72-.555.72-.555S418.522 7.967 406.613 9.16c-5.986.535-13.35 5.985-17.669 13.184-4.32 7.2-4.936 13.288-4.936 13.288z"/></g><g><path d="M384.008 35.632h16.25s-3.107-14.172 7.178-19.91c2.242-1.09 9.38-5.163 21.062 3.475.37-.308.72-.555.72-.555S418.522 7.967 406.613 9.16c-5.986.535-13.35 5.985-17.669 13.184-4.32 7.2-4.936 13.288-4.936 13.288z"/></g><g><path d="M417.864 10.312l.082-1.378c-.185-.103-.699-.35-1.995-.72l-.082 1.357c.679.226 1.337.473 1.995.74zm-33.856 25.32h16.25s-3.107-14.172 7.178-19.91c2.242-1.09 9.38-5.163 21.062 3.475.37-.308.72-.555.72-.555S418.522 7.967 406.613 9.16c-6.006.535-13.37 5.985-17.69 13.184-4.319 7.2-4.915 13.288-4.915 13.288z"/></g><g><path d="M403.096 32.32c.123.967.308 1.872.493 2.674l-2.468-.884a20.895 20.895 0 0 1-.247-2.592zm-18.163-4.134l-2.365-.864a53.21 53.21 0 0 1 1.028-2.468l2.366.864c-.33.76-.761 1.769-1.029 2.468zm7.24-11.663zm0 0c-.493.515-.966 1.07-1.398 1.625l-1.584-1.357c.473-.514.987-1.029 1.522-1.543zm9.627 7.508l1.48 1.173c-.205.802-.349 1.604-.431 2.406l-1.666-1.316c.164-.74.35-1.502.617-2.263zm2.365-4.36c.37-.474.802-.947 1.276-1.379l.925 1.4c-.452.472-.864.945-1.213 1.46l-.988-1.482zm-5.8-8.351l-.946-1.44c.555-.33 1.09-.617 1.604-.885l.926 1.42c-.535.267-1.05.575-1.584.905zm12.732 3.846l.452 1.357c-.596.186-1.193.432-1.789.72l-.473-1.419c.514-.226 1.11-.452 1.81-.658zM408.3 8.255c-.597 0-1.193.02-1.79.082l-.39-1.213A16.413 16.413 0 0 1 408.093 7l.411 1.255h-.205zm9.646 6.685l-.082 1.275a11.47 11.47 0 0 0-2.036-.247l.082-1.296c.658.041 1.337.124 2.036.268z"/></g></g><g><g><path d="M191.017 1.448a3.522 3.522 0 0 1 3.439 0c5.234 2.958 10.47 5.911 15.705 8.87.984.555 1.642 1.651 1.632 2.785V30.9c.008 1.181-.716 2.303-1.754 2.845-5.218 2.942-10.433 5.887-15.65 8.828-1.062.608-2.446.561-3.476-.096-1.564-.907-3.13-1.81-4.695-2.715-.32-.19-.68-.343-.906-.652.2-.27.557-.303.846-.42.653-.208 1.253-.541 1.853-.865.152-.103.337-.064.482.03 1.338.766 2.663 1.555 4.006 2.315.286.165.576-.054.82-.19 5.12-2.894 10.247-5.777 15.366-8.672a.508.508 0 0 0 .279-.5c.003-5.87 0-11.742.002-17.612a.55.55 0 0 0-.328-.55c-5.2-2.928-10.396-5.86-15.595-8.789a.542.542 0 0 0-.612 0c-5.199 2.929-10.395 5.864-15.593 8.792a.544.544 0 0 0-.33.547v17.613a.498.498 0 0 0 .283.494c1.387.787 2.776 1.568 4.164 2.352.782.42 1.743.67 2.604.348a1.975 1.975 0 0 0 1.28-1.856c.006-5.836-.005-11.673.004-17.508-.019-.26.227-.473.48-.45a87.367 87.367 0 0 1 2 .003c.278-.007.47.272.435.533-.003 5.874.007 11.747-.005 17.62.002 1.565-.64 3.268-2.089 4.034-1.783.924-3.988.728-5.75-.158-1.525-.761-2.981-1.66-4.48-2.475-1.04-.54-1.76-1.665-1.753-2.846V13.103c-.011-1.158.673-2.273 1.688-2.82 5.217-2.943 10.433-5.89 15.648-8.835z"/></g><g><path d="M195.568 13.775c2.276-.146 4.711-.086 6.759 1.034 1.585.86 2.463 2.662 2.491 4.423-.044.238-.292.369-.519.352-.66 0-1.32.01-1.98-.004-.28.01-.443-.248-.478-.495-.19-.843-.65-1.677-1.443-2.084-1.217-.61-2.629-.579-3.956-.566-.97.052-2.012.135-2.833.705-.63.432-.821 1.304-.596 2.005.212.504.793.667 1.27.817 2.741.717 5.647.646 8.336 1.59 1.114.384 2.203 1.132 2.584 2.298.499 1.562.28 3.43-.831 4.685-.902 1.032-2.215 1.594-3.525 1.899-1.742.388-3.55.398-5.32.226-1.663-.19-3.394-.627-4.679-1.76-1.098-.954-1.634-2.44-1.58-3.874.012-.242.253-.411.485-.391a98.42 98.42 0 0 1 1.994 0c.266-.018.463.211.476.461.123.803.425 1.646 1.125 2.122 1.35.871 3.046.812 4.593.836 1.282-.057 2.72-.074 3.766-.921.552-.483.715-1.292.566-1.987-.161-.587-.775-.86-1.303-1.04-2.707-.856-5.645-.545-8.325-1.513-1.088-.385-2.14-1.112-2.559-2.23-.583-1.582-.316-3.54.912-4.752 1.198-1.205 2.927-1.67 4.57-1.836z"/></g></g><g><g><path d="M102.067 21.467V1H143v40.933h-40.933"/></g><g><path fill="#00e9c5" d="M134.957 19.83a4.955 4.955 0 0 1 2.558 1.463c.379.409.941 1.125.982 1.31 0 .061-1.77 1.258-2.845 1.923-.04.031-.204-.143-.368-.409-.532-.757-1.074-1.085-1.924-1.146-1.228-.082-2.046.563-2.046 1.637 0 .328.06.512.184.778.276.563.788.9 2.374 1.596 2.927 1.26 4.196 2.088 4.963 3.275.87 1.33 1.064 3.418.481 4.984-.655 1.709-2.251 2.865-4.533 3.244-.717.123-2.354.102-3.122-.031-1.637-.307-3.203-1.126-4.165-2.18-.378-.409-1.105-1.504-1.064-1.576l.39-.245 1.534-.89 1.156-.676.267.358c.337.532 1.094 1.249 1.535 1.494 1.33.686 3.11.594 3.99-.204.38-.348.543-.717.543-1.228 0-.471-.072-.686-.307-1.044-.328-.45-.983-.819-2.825-1.638-2.118-.9-3.018-1.473-3.857-2.353-.481-.532-.922-1.361-1.126-2.047-.154-.593-.205-2.046-.062-2.63.44-2.046 1.986-3.48 4.196-3.888.716-.144 2.405-.082 3.111.102zm-23.885 1.719V19.87l7.163-.03c3.94 0 7.184.01 7.184.04.041.021.041.768.041 1.689v1.637h-5.321v15.146h-3.776V23.206h-5.322v-1.668z"/></g></g><g><g><path d="M318.986 37.499L316 1l35.667.073-3.158 36.426-14.541 4.21z"/></g><g><path fill="#00efd4" d="M344.617 12.897l.416-4.455h-22.595l1.248 13.66h15.594l-.612 5.825-4.993 1.347-5.068-1.47-.269-3.475h-4.48l.612 7.099 9.204 2.57 9.278-2.57 1.248-13.855h-16.376l-.465-4.676z"/></g></g><g><g><g><path d="M283.89 25.65c-.25-.756-.904-1.283-1.75-1.409-.398-.06-.855-.034-1.395.077-.942.195-1.64.269-2.15.283 1.924-3.25 3.49-6.957 4.39-10.445 1.458-5.642.68-8.212-.23-9.374-2.409-3.077-5.922-4.73-10.16-4.78-2.262-.028-4.246.418-5.282.739-.964-.17-2-.265-3.088-.283-2.04-.032-3.84.412-5.38 1.326a24.529 24.529 0 0 0-3.8-.954c-3.714-.61-6.708-.135-8.898 1.413-2.652 1.873-3.881 5.127-3.654 9.673.073 1.443.88 5.834 2.15 9.998.731 2.394 1.51 4.381 2.316 5.908 1.143 2.166 2.366 3.441 3.739 3.899.769.256 2.167.436 3.637-.789.187.226.435.45.765.659.42.264.932.48 1.444.608 1.844.46 3.572.346 5.046-.3.009.261.016.512.021.728.01.35.02.695.033 1.017.087 2.175.235 3.866.674 5.049.024.065.056.164.09.27.219.67.585 1.79 1.515 2.668.964.91 2.13 1.189 3.197 1.189.535 0 1.046-.07 1.494-.166 1.597-.343 3.41-.864 4.723-2.732 1.24-1.766 1.844-4.427 1.953-8.618l.04-.34.025-.221.293.026.075.005c1.627.074 3.615-.271 4.837-.839.965-.447 4.058-2.08 3.33-4.285"/></g><g><path d="M281.109 26.079c-4.837.997-5.17-.64-5.17-.64 5.107-7.577 7.242-17.196 5.4-19.55-5.026-6.421-13.726-3.384-13.871-3.306l-.047.009a17.249 17.249 0 0 0-3.227-.336c-2.188-.036-3.848.573-5.108 1.529 0 0-15.52-6.394-14.798 8.04.154 3.072 4.402 23.236 9.468 17.145 1.852-2.227 3.642-4.11 3.642-4.11.888.59 1.952.892 3.067.784l.087-.074a3.38 3.38 0 0 0 .035.867c-1.306 1.458-.922 1.714-3.531 2.252-2.64.544-1.09 1.512-.077 1.766 1.228.307 4.068.741 5.987-1.945l-.076.307c.511.41.87 2.664.81 4.708-.06 2.044-.1 3.447.302 4.543.404 1.096.805 3.563 4.235 2.828 2.866-.614 4.352-2.206 4.558-4.861.147-1.888.479-1.609.5-3.296l.266-.799c.307-2.559.049-3.384 1.814-3l.43.038c1.299.059 3-.21 3.998-.674 2.15-.997 3.425-2.663 1.305-2.225"/></g><g><path d="M274.433 13.211c-.041-.298-.571-.383-1.074-.313-.502.07-.989.297-.948.595.032.232.451.629.947.629a.905.905 0 0 0 .127-.01c.331-.045.574-.255.69-.376.175-.185.277-.391.258-.525m-14.438-.012c-.436-.06-.831-.005-1.03.147a.378.378 0 0 0-.157.251c-.025.18.1.379.178.481.219.29.539.49.855.533.046.007.092.01.137.01.528 0 1.008-.411 1.05-.714.053-.38-.499-.634-1.033-.708"/></g><g><path fill="#00e9c5" d="M279.517 27.702c-.692.321-1.852.562-2.953.614-1.217.057-1.836-.136-1.982-.255-.068-1.406.455-1.553 1.009-1.708.087-.025.172-.048.254-.077.05.041.107.083.168.123.977.645 2.721.715 5.183.207l.027-.006c-.332.31-.9.727-1.706 1.102zm-11.075 12.674c-2.654.569-3.593-.785-4.212-2.333-.4-1-.596-5.505-.457-10.48a.6.6 0 0 0-.026-.191 2.51 2.51 0 0 0-.074-.352c-.207-.724-.712-1.33-1.318-1.58-.24-.1-.682-.283-1.213-.147.113-.467.31-.993.522-1.564l.09-.24c.1-.27.226-.55.36-.847.72-1.602 1.708-3.795.636-8.751-.401-1.856-1.742-2.763-3.773-2.552-1.219.126-2.333.617-2.889.9-.12.06-.229.118-.33.175.154-1.87.74-5.365 2.933-7.577 1.38-1.392 3.219-2.08 5.46-2.042 4.413.072 7.243 2.337 8.84 4.225 1.377 1.626 2.122 3.264 2.42 4.148-2.237-.227-3.759.214-4.53 1.317-1.678 2.398.918 7.053 2.166 9.29.229.41.426.765.488.916.406.984.932 1.642 1.316 2.121.118.147.232.29.319.414-.678.196-1.894.647-1.784 2.903-.089 1.132-.725 6.431-1.048 8.304-.427 2.473-1.337 3.394-3.896 3.943zM257.09 29.813a2.65 2.65 0 0 1-.8-.344c.146-.068.404-.161.853-.253 2.169-.447 2.504-.762 3.235-1.69.168-.214.358-.455.621-.75.393-.439.572-.364.897-.23.264.11.52.44.625.804.049.172.104.498-.077.751-1.528 2.14-3.754 2.112-5.354 1.712zm-.173-6.164c-1.061-1.107-1.543-2.647-1.322-4.226.309-2.21.195-4.136.133-5.17-.008-.145-.016-.272-.02-.372.5-.443 2.815-1.684 4.467-1.305.754.172 1.213.685 1.404 1.568.988 4.57.13 6.475-.558 8.006-.142.316-.277.614-.391.922l-.089.238c-.225.603-.434 1.164-.563 1.696-1.129-.004-2.226-.486-3.06-1.357zm-3.656 4.878c-.96 1.154-1.622.933-1.84.86-1.42-.473-3.067-3.474-4.52-8.233-1.256-4.117-1.99-8.258-2.049-9.419-.183-3.671.707-6.23 2.646-7.606 3.156-2.237 8.344-.898 10.429-.219-.03.03-.062.058-.091.088-3.421 3.455-3.34 9.357-3.332 9.718 0 .14.012.337.028.608.059.993.168 2.84-.125 4.933-.271 1.944.328 3.848 1.645 5.222.135.14.277.274.425.401a87.987 87.987 0 0 0-3.216 3.647zm19.415-26.186c3.47.076 6.214 1.374 8.157 3.857 1.49 1.905-.15 10.57-4.902 18.047l-.144-.182-.06-.075c1.228-2.027.988-4.033.774-5.812-.088-.73-.17-1.42-.15-2.067.022-.686.113-1.275.2-1.844.109-.701.218-1.427.188-2.283a.946.946 0 0 0 .02-.321c-.077-.82-1.014-3.276-2.923-5.499-1.045-1.215-2.568-2.576-4.647-3.493a15.67 15.67 0 0 1 3.487-.328zm2.87 10.048c-.01.593-.092 1.132-.179 1.694-.093.604-.19 1.23-.214 1.988-.024.738.069 1.506.158 2.248.18 1.5.365 3.043-.35 4.566a5.938 5.938 0 0 1-.318-.652c-.089-.215-.282-.562-.55-1.041-1.04-1.866-3.477-6.237-2.23-8.02.372-.531 1.315-1.077 3.682-.783zm7.172 13.576c-.184-.557-.778-.737-1.764-.533-2.928.604-3.977.186-4.321-.068 2.276-3.467 4.148-7.658 5.158-11.569.479-1.852.743-3.572.765-4.975.024-1.539-.239-2.67-.78-3.36-2.179-2.785-5.378-4.28-9.25-4.32-2.662-.03-4.911.651-5.347.843a13.33 13.33 0 0 0-3.01-.387c-1.997-.032-3.725.446-5.155 1.422a23.017 23.017 0 0 0-4.19-1.1c-3.395-.546-6.092-.132-8.017 1.232-2.297 1.627-3.357 4.536-3.152 8.645.07 1.383.857 5.636 2.1 9.71 1.637 5.36 3.416 8.395 5.287 9.02.22.072.472.123.75.123.683 0 1.52-.308 2.391-1.355a86.166 86.166 0 0 1 3.295-3.728 5.309 5.309 0 0 0 2.37.638l.006.064c-.142.17-.281.342-.418.517-.572.727-.691.878-2.535 1.258-.525.108-1.918.395-1.938 1.372-.022 1.066 1.647 1.514 1.837 1.562.662.166 1.3.248 1.91.248 1.48 0 2.782-.487 3.824-1.428-.032 3.803.126 7.55.583 8.692.374.935 1.287 3.22 4.173 3.22.424 0 .89-.05 1.403-.16 3.012-.646 4.32-1.977 4.826-4.912.27-1.568.735-5.314.954-7.323.461.144 1.055.21 1.697.21 1.338 0 2.883-.285 3.852-.734 1.088-.506 3.052-1.746 2.696-2.824z"/></g></g></g><g><g><path fill="#061d2f" d="M504.96 16.9h-3.9V13h3.9zm4.9 0h-3.9V13h3.9zm-9.7 4.9h-3.9v-3.9h3.9zm9.7 0h-3.9v-3.9h3.9zm-4.9 0h-3.9v-3.9h3.9zm14.5 0h-3.9v-3.9h3.9zm-4.8-9.9h-3.9V8h3.9zm0 5h-3.9V13h3.9zm0 4.9h-3.9v-3.9h3.9zm17.5-1.8l.5.3-.3.5c-1.1 2.2-3.4 2.8-5.7 2.7-3.5 8.4-10.9 12.3-19.9 12.3-4.7 0-9-1.8-11.4-5.8v-.1l-.4-.7c-.8-1.8-1.1-3.8-.9-5.7l.1-.6h25.9c.9 0 1.8-.1 2.7-.4.4-.2.9-.4 1.3-.6-.5-.7-.8-1.6-.9-2.5-.1-1.2.2-2.8 1-3.7l.4-.5.5.4c1.3 1 2.3 2.3 2.5 3.9 1.5-.4 3.3-.3 4.6.5zm-28.3 8.4c0-1.1-.9-2-2.1-2-1.2 0-2.1.9-2.1 2s1 2 2.1 2 2.1-.9 2.1-2z"/></g><g><g><path d="M504.96 16.9h-3.9V13h3.9zm4.9 0h-3.9V13h3.9zm-9.7 4.9h-3.9v-3.9h3.9zm9.7 0h-3.9v-3.9h3.9zm-4.9 0h-3.9v-3.9h3.9zm14.5 0h-3.9v-3.9h3.9zm-4.8-9.9h-3.9V8h3.9zm0 5h-3.9V13h3.9zm0 4.9h-3.9v-3.9h3.9zm17.5-1.8l.5.3-.3.5c-1.1 2.2-3.4 2.8-5.7 2.7-3.5 8.4-10.9 12.3-19.9 12.3-4.7 0-9-1.8-11.4-5.8v-.1l-.4-.7c-.8-1.8-1.1-3.8-.9-5.7l.1-.6h25.9c.9 0 1.8-.1 2.7-.4.4-.2.9-.4 1.3-.6-.5-.7-.8-1.6-.9-2.5-.1-1.2.2-2.8 1-3.7l.4-.5.5.4c1.3 1 2.3 2.3 2.5 3.9 1.5-.4 3.3-.3 4.6.5zm-28.3 8.4c0-1.1-.9-2-2.1-2-1.2 0-2.1.9-2.1 2s1 2 2.1 2 2.1-.9 2.1-2z"/></g><g clip-path="url(#1wxha)"><path fill="#061d2f" d="M444.26-14.6h1274.8v151.4H444.26z"/></g></g><g><path fill="#061d2f" d="M550.26 20v-4.9c0-.6.4-1.2 1.1-1.2h.2c.7 0 1.1.5 1.1 1.2v10.3c0 2.5-1.2 4.5-3.4 5.7-1 .6-2.1.9-3.3.9h-.5c-2.5 0-4.5-1.2-5.7-3.4-.6-1-.9-2.1-.9-3.3v-.5c0-2.5 1.2-4.5 3.4-5.7 1-.6 2.1-.9 3.3-.9h.5c1.5.1 3 .7 4.2 1.8zm-9.2 5.1c0 1.8.9 3.2 2.5 4 .6.3 1.3.5 2.1.5 1.8 0 3.1-.8 4-2.3.4-.7.6-1.5.6-2.3 0-1.6-.7-2.8-2-3.7-.8-.5-1.6-.8-2.6-.8-1.9 0-3.3 1-4.1 2.7-.3.7-.5 1.3-.5 1.9zm19.4-6.8h.3c2.7 0 4.7 1.3 6 3.6.5.9.8 1.9.8 3v.5c0 2.5-1.2 4.5-3.4 5.7-1 .6-2.1.9-3.3.9h-.5c-2.5 0-4.5-1.2-5.7-3.4-.6-1-.9-2.1-.9-3.3v-.5c0-2.5 1.2-4.5 3.4-5.7 1.1-.5 2.1-.8 3.3-.8zm-4.2 6.8c0 1.7.9 3 2.3 3.9.7.4 1.5.6 2.3.6 1.7 0 3-.9 3.9-2.3.4-.7.6-1.5.6-2.3 0-1.6-.8-2.9-2.1-3.8-.7-.5-1.6-.7-2.4-.7-1.9 0-3.3 1-4.1 2.7-.5.7-.5 1.3-.5 1.9zm21-4.3c-.3-.2-1-.2-1.4-.2-1.9-.1-3.3 1-4.1 2.7-.3.6-.4 1.2-.4 1.9 0 2 1 3.4 2.8 4.2.6.3 1.5.4 2.2.4.6 0 1.5-.4 2-.6h.5c.5.1.9.4.9 1v.2c0 1.4-2.6 1.7-3.5 1.8-3.4.2-6-1.7-7-4.9-.2-.6-.2-1.1-.2-1.7v-.5c0-2.5 1.2-4.5 3.4-5.7 1-.6 2.1-.9 3.3-.9h.5c1.2 0 2.4.3 3.4 1l.2.2c.1.2.2.4.2.6v.2c0 .6-.4.9-1 1h-.1c-.7-.2-1.5-.6-1.7-.7zm7.4 1.5l2.7-2.7c.3-.2 1.2-1.3 1.6-1.3h.4c.5.1.9.4.9 1v.2c0 .4-.5.8-.7 1.1-.5.6-1.1 1.1-1.6 1.7l-2.8 2.8 5 5c.1.2.2.3.2.5v.3c-.1.5-.5.9-1 .9h-.2c-.4 0-.8-.4-1.1-.7-.5-.5-1.1-1-1.6-1.6l-1.8-1.7v2.8c0 .6-.4 1.2-1.1 1.2h-.2c-.7 0-1.1-.5-1.1-1.2V15.2c0-.6.4-1.1 1.1-1.1h.2c.7 0 1.1.5 1.1 1.1zm28.6-3.9h.2c.7 0 1.2.5 1.2 1.2 0 1-.9 1.2-1.7 1.2-1 0-2 .6-2.7 1.3-.9.9-1.3 2-1.3 3.2v5.6c0 .6-.4 1.2-1.1 1.2h-.2c-.7 0-1.1-.5-1.1-1.2V25c0-2.3 1.1-4.1 2.9-5.4 1.3-.8 2.5-1.2 3.8-1.2zm-16.3 11c.8.3 1.8.3 2.7.1.4-.2 1.6-.7 2-.6h.2c.3.1.5.3.6.6.3.6.2 1.2-.4 1.5l-.2.1c-2.2 1.3-4.5 1.1-6.7-.1-1-.6-1.8-1.4-2.4-2.4l-.1-.2c-1.4-2.4-1.2-5 .4-7.3.5-.8 1.3-1.4 2.1-1.9l.3-.2c2.1-1.2 4.3-1.1 6.4-.1 1.1.6 2.1 1.4 2.7 2.5l.1.2c.5.8-.1 1.5-.8 2l-2.1 1.8c-1.8 1.4-3.3 2.7-4.8 4zm-2-1.4c1.7-1.5 3.4-2.9 5.1-4.4.6-.5 1.2-1 1.8-1.6-.5-.6-1.2-1-1.9-1.3-1.3-.5-2.6-.3-3.9.4-1.6.9-2.3 2.4-2.2 4.2 0 .7.2 1.4.6 2 .3.3.4.5.5.7"/></g></g></g></g></svg>