<svg xmlns="http://www.w3.org/2000/svg" width="508" height="237" viewBox="0 0 508 237"><g><g><path d="M0 .721h27.943v49.861c-.097 5.28.091 10.561.563 15.82.256 2.733.873 5.42 1.835 7.99a10.186 10.186 0 0 0 5.534 5.881 20.53 20.53 0 0 0 9.796 2.167 20.4 20.4 0 0 0 9.738-2.167 11.905 11.905 0 0 0 5.606-5.88 36.323 36.323 0 0 0 1.82-7.99c.57-5.254.815-10.537.737-15.821V.722h27.755v54.194c0 11.116-.68 19.38-2.037 24.793a30.717 30.717 0 0 1-21.384 23.118 67.734 67.734 0 0 1-22.192 3.15c-9.016 0-16.437-1.05-22.265-3.15a32.306 32.306 0 0 1-14.448-9.32A32.667 32.667 0 0 1 2.167 79.71C.722 74.21 0 65.945 0 54.916z"/></g><g><path d="M112.537 103.246V.663h26.975l38.72 52.722a68.233 68.233 0 0 1 3.714 6.516c1.926 3.747 3.795 7.6 5.606 11.559-.708-5.36-1.098-9.132-1.185-11.27-.289-3.371-.433-6.338-.433-8.9V.72h26.83v102.582h-26.83l-38.721-52.952a66.254 66.254 0 0 1-3.714-6.574c-1.676-2.991-3.554-6.776-5.606-11.342.463 3.641.91 7.412 1.33 11.342.187 4.334.289 7.354.289 8.885v50.57z"/></g><g><path d="M262.422 23.68h4.681c10.981 0 18.99 2.311 24.028 6.935 5.037 4.623 7.556 11.78 7.556 21.47-.038 9.66-2.557 16.774-7.556 21.34-5 4.565-13.008 6.848-24.028 6.848h-4.68zm-27.581 79.609h26.006c13.534.01 23.387-.761 29.561-2.312a48.415 48.415 0 0 0 16.876-7.44 43.763 43.763 0 0 0 14.766-17.338 56.217 56.217 0 0 0 5.042-24.23 56.13 56.13 0 0 0-5.042-24.23 42.535 42.535 0 0 0-14.766-17.337 47.852 47.852 0 0 0-17.338-7.5C283.541 1.41 272.262.664 256.108.664h-21.354v102.583z"/></g><g><path d="M344.632 103.246V80.273h35.586V63.051H346.67V40.988h33.548V23.26h-35.586V.721h62.807v102.582z"/></g><g><path d="M452.141 22.22h5.606c6.155.039 10.518 1.132 13.09 3.28 2.572 2.148 3.858 5.794 3.858 10.937a11.819 11.819 0 0 1-4.132 9.724c-2.717 2.008-7.123 3.02-13.25 3.02h-5.172zm0 81.026V63.109l23.522 40.18h31.598l-27.957-41.322c7.368-1.599 13.018-4.922 16.948-9.97 3.93-5.046 5.894-11.514 5.894-19.403.083-4.93-.95-9.815-3.02-14.29a26.396 26.396 0 0 0-8.466-10.778 31.381 31.381 0 0 0-11.558-5.331 62.633 62.633 0 0 0-9.637-1.185c-3.911-.23-8.693-.347-14.347-.347h-29.243v102.583z"/></g><g><path d="M32.783 156.776h4.696c10.98.01 18.99 2.321 24.027 6.935 5.038 4.614 7.556 11.77 7.556 21.47-.038 9.661-2.557 16.775-7.556 21.34-5 4.566-13.008 6.849-24.027 6.849h-4.696zM5.187 236.212h26.007c13.542 0 23.396-.77 29.56-2.312a48.415 48.415 0 0 0 16.948-7.224 43.764 43.764 0 0 0 14.766-17.337 60.682 60.682 0 0 0-.057-48.503 42.536 42.536 0 0 0-14.766-17.338A48.055 48.055 0 0 0 60.307 136c-6.396-1.493-17.67-2.24-33.823-2.24H5.129v102.582z"/></g><g><path d="M115.007 236.342V133.76h62.821v22.54h-35.571v17.785h33.548v22.062h-33.548v17.223h35.571v22.972z"/></g><g><path d="M225.666 236.342L182.668 133.76h29.72l20.517 57.345 1.127 4.334c.549 2.428 1.329 5.577 2.311 9.464.593-2.803 1.33-5.606 2.168-8.409.358-1.808.841-3.59 1.444-5.331l20.372-57.345h29.706L247.02 236.4z"/></g></g></svg>